<svg xmlns="http://www.w3.org/2000/svg" width="1024" height="1792" viewBox="0 0 1024 1792">
  <defs>
    <radialGradient id="sky" cx="50%" cy="28%" r="62%">
      <stop offset="0%" stop-color="#eff8c6"/>
      <stop offset="30%" stop-color="#9ac46a" stop-opacity=".9"/>
      <stop offset="78%" stop-color="#121d14"/>
      <stop offset="100%" stop-color="#0e0b10"/>
    </radialGradient>
    <linearGradient id="frame" x1="0" y1="0" x2="1" y2="1">
      <stop offset="0" stop-color="#fff2c8"/>
      <stop offset=".45" stop-color="#d7a65c"/>
      <stop offset="1" stop-color="#7a431e"/>
    </linearGradient>
    <filter id="glow" x="-30%" y="-30%" width="160%" height="160%">
      <feGaussianBlur stdDeviation="12" result="blur"/>
      <feColorMatrix in="blur" type="matrix" values="1 0 0 0 .95 0 .72 0 0 .44 0 0 .32 0 .18 0 0 0 .82 0"/>
      <feMerge><feMergeNode/><feMergeNode in="SourceGraphic"/></feMerge>
    </filter>
  </defs>
  <rect width="1024" height="1792" rx="58" fill="#111114"/>
  <rect x="34" y="34" width="956" height="1724" rx="42" fill="url(#frame)"/>
  <rect x="72" y="72" width="880" height="1648" rx="28" fill="#121d14"/>
  <rect x="94" y="94" width="836" height="1604" rx="22" fill="url(#sky)"/>
  <path d="M136 178 C286 96 738 96 888 178 M136 1614 C286 1696 738 1696 888 1614" fill="none" stroke="#ffe8a7" stroke-width="8" opacity=".9"/>
  <path d="M164 230 C220 158 804 158 860 230 V1562 C804 1634 220 1634 164 1562 Z" fill="none" stroke="#f6c96f" stroke-width="5"/>
  <circle cx="512" cy="560" r="276" fill="#fff" opacity=".08"/>
  <path d="M198 1238 C304 1120 414 1196 512 1112 C622 1018 738 1072 826 966 V1534 H198Z" fill="#0c0b0f" opacity=".38"/>
  <path d="M160 1304 C296 1236 390 1292 512 1218 C646 1138 742 1186 866 1096" fill="none" stroke="#eff8c6" stroke-width="7" opacity=".35"/>
  <g><g transform="translate(512 665) rotate(0) scale(0.75)">
    <circle cx="0" cy="0" r="108" fill="#9ac46a" stroke="#eff8c6" stroke-width="11"/>
    <path d="M0 -74 L22 -18 L82 -18 L34 18 L52 78 L0 42 L-52 78 L-34 18 L-82 -18 L-22 -18Z" fill="#2a3518" stroke="#eff8c6" stroke-width="7"/>
    <circle cx="0" cy="0" r="76" fill="none" stroke="#fff7cb" stroke-width="4" opacity=".45"/>
  </g><g transform="translate(330 820) rotate(-20) scale(0.7)">
    <circle cx="0" cy="0" r="108" fill="#9ac46a" stroke="#eff8c6" stroke-width="11"/>
    <path d="M0 -74 L22 -18 L82 -18 L34 18 L52 78 L0 42 L-52 78 L-34 18 L-82 -18 L-22 -18Z" fill="#2a3518" stroke="#eff8c6" stroke-width="7"/>
    <circle cx="0" cy="0" r="76" fill="none" stroke="#fff7cb" stroke-width="4" opacity=".45"/>
  </g><g transform="translate(694 820) rotate(20) scale(0.7)">
    <circle cx="0" cy="0" r="108" fill="#9ac46a" stroke="#eff8c6" stroke-width="11"/>
    <path d="M0 -74 L22 -18 L82 -18 L34 18 L52 78 L0 42 L-52 78 L-34 18 L-82 -18 L-22 -18Z" fill="#2a3518" stroke="#eff8c6" stroke-width="7"/>
    <circle cx="0" cy="0" r="76" fill="none" stroke="#fff7cb" stroke-width="4" opacity=".45"/>
  </g><g transform="translate(395 1010) rotate(-10) scale(0.68)">
    <circle cx="0" cy="0" r="108" fill="#9ac46a" stroke="#eff8c6" stroke-width="11"/>
    <path d="M0 -74 L22 -18 L82 -18 L34 18 L52 78 L0 42 L-52 78 L-34 18 L-82 -18 L-22 -18Z" fill="#2a3518" stroke="#eff8c6" stroke-width="7"/>
    <circle cx="0" cy="0" r="76" fill="none" stroke="#fff7cb" stroke-width="4" opacity=".45"/>
  </g><g transform="translate(512 1045) rotate(0) scale(0.68)">
    <circle cx="0" cy="0" r="108" fill="#9ac46a" stroke="#eff8c6" stroke-width="11"/>
    <path d="M0 -74 L22 -18 L82 -18 L34 18 L52 78 L0 42 L-52 78 L-34 18 L-82 -18 L-22 -18Z" fill="#2a3518" stroke="#eff8c6" stroke-width="7"/>
    <circle cx="0" cy="0" r="76" fill="none" stroke="#fff7cb" stroke-width="4" opacity=".45"/>
  </g><g transform="translate(629 1010) rotate(10) scale(0.68)">
    <circle cx="0" cy="0" r="108" fill="#9ac46a" stroke="#eff8c6" stroke-width="11"/>
    <path d="M0 -74 L22 -18 L82 -18 L34 18 L52 78 L0 42 L-52 78 L-34 18 L-82 -18 L-22 -18Z" fill="#2a3518" stroke="#eff8c6" stroke-width="7"/>
    <circle cx="0" cy="0" r="76" fill="none" stroke="#fff7cb" stroke-width="4" opacity=".45"/>
  </g><g transform="translate(512 1210) rotate(0) scale(0.62)">
    <circle cx="0" cy="0" r="108" fill="#9ac46a" stroke="#eff8c6" stroke-width="11"/>
    <path d="M0 -74 L22 -18 L82 -18 L34 18 L52 78 L0 42 L-52 78 L-34 18 L-82 -18 L-22 -18Z" fill="#2a3518" stroke="#eff8c6" stroke-width="7"/>
    <circle cx="0" cy="0" r="76" fill="none" stroke="#fff7cb" stroke-width="4" opacity=".45"/>
  </g></g>
  <g transform="translate(512 500)">
    <circle r="120" fill="none" stroke="#ffe5a7" stroke-width="6" opacity=".78"/>
    <text y="20" text-anchor="middle" font-family="Georgia, serif" font-size="72" font-weight="700" fill="#eff8c6">◈</text>
  </g>
  <rect x="178" y="120" width="668" height="132" rx="66" fill="#261315" stroke="#f4d28a" stroke-width="4" opacity=".95"/>
  <text x="512" y="184" text-anchor="middle" font-family="'Times New Roman', Georgia, serif" font-size="54" font-weight="700" fill="#fff2c2">星币七</text>
  <text x="512" y="226" text-anchor="middle" font-family="Georgia, serif" font-size="26" letter-spacing="5" fill="#d8a552">VII of Pentacles</text>
  <rect x="376" y="1508" width="272" height="86" rx="43" fill="#261315" stroke="#f2ce85" stroke-width="4"/>
  <text x="512" y="1566" text-anchor="middle" font-family="Georgia, serif" font-size="46" font-weight="700" fill="#fff2c2">VII</text>
  <text x="512" y="1642" text-anchor="middle" font-family="'PingFang SC','Microsoft YaHei',sans-serif" font-size="30" fill="#fff0c5">土之考验信念</text>
  <text x="512" y="1684" text-anchor="middle" font-family="'PingFang SC','Microsoft YaHei',sans-serif" font-size="23" fill="#f3c778" opacity=".92">考验信念 · 现实 · 外界压力增多，需要守住核心判断。</text>
</svg>